<?xml version="1.0" encoding="iso-8859-1"?>
<!-- Uploaded to: SVG Repo, www.svgrepo.com, Generator: SVG Repo Mixer Tools -->
<svg version="1.1" id="Layer_1" xmlns="http://www.w3.org/2000/svg" xmlns:xlink="http://www.w3.org/1999/xlink" 
	 viewBox="0 0 500 500" xml:space="preserve">
<path style="fill:#EDC654;" d="M4,49.2v304c0,7.6,6.4,16,14,16h468c7.6,0,14-8.4,14-16v-302c0-8.8-7.2-14-16-14H18
	C10.4,37.2,4,41.6,4,49.2z"/>
<rect x="28" y="61.2" style="fill:#CDEEF9;" width="448" height="280"/>
<path style="fill:#3C8E51;" d="M200,130.4L126.8,204L92,170.4l-62.4,59.2c-0.4,0.4,0,112,0,112H476v-96L400.4,170l-77.2,76.8
	L200,130.4z"/>
<path style="fill:#54B265;" d="M200,131.2l-73.2,74l138.4,136h157.6L200,131.2z"/>
<path style="fill:#E8BB85;" d="M92,170.8l-62.4,58.8c-0.4,0.4,0,111.2,0,111.2h237.6L92,170.8z"/>
<circle style="fill:#E9B526;" cx="316.4" cy="126.8" r="26.4"/>
<g>
	<path style="fill:#ACD9EA;" d="M333.2,272.8c-20.8-20.4-48.4-31.6-77.6-31.6c-0.4,0-0.4,0-0.8,0c-21.2,4-41.6,6.4-59.2,17.6l0.4-2
		c1.2-6.4-3.2-12.8-9.6-14c-6.4-1.2-12.8,3.2-14,9.6l-5.6,30.8c-1.2,6.4,3.2,12.8,9.6,14l30.8,5.6c0.8,0,1.6,0.4,2,0.4
		c5.6,0,10.8-4,11.6-10c1.2-6.4-3.2-12.8-9.6-14l-2-0.4c13.6-8.4,29.2-9.2,45.6-13.2c0.4,0,0.4,0,0.8,0c22.8,0,44.4,8.8,60.4,24.8
		c22,21.6,30.8,53.2,22.8,83.2c-1.6,6.4,2.4,12.8,8.8,14.8c1.2,0.4,2,0.4,3.2,0.4c5.2,0,10.4-3.6,11.6-8.8
		C372.4,341.2,361.2,300.4,333.2,272.8z"/>
	<path style="fill:#ACD9EA;" d="M333.6,405.6l-30.8-5.6c-6.4-1.2-12.8,3.2-14,9.6s6,16,12.8,17.2l0.8-0.8
		c-13.6,8.8-29.2,15.2-46,15.2c-0.4,0-0.4,0-0.8,0c-22.8,0-44.4-10.4-60.4-26.4c-22-21.6-30.8-54.8-22.8-84.8
		c1.6-6.4-2-13.6-8.4-15.2s-12.8,2-14.8,8.4c-10.4,38.4,0.8,81.2,29.2,108.8c20.8,20.4,48.4,33.2,77.6,33.2c0.4,0,0.4,0,0.8,0
		c20.8,0,40.4-7.6,57.6-18.4l0,0c-1.2,6.4,3.2,12.4,9.6,13.6c0.8,0,1.6,0,2,0c5.6,0,10.8-4,11.6-10l5.6-30.8c0.4-3.2,0-6.4-2-9.2
		S336.8,406,333.6,405.6z"/>
</g>
<path d="M350.8,392c-1.2,0-2.8,0-4-0.4c-8.4-2.4-13.6-10.8-11.6-19.6c7.2-28.4-1.2-58.8-22-79.2c-15.6-15.2-36-23.6-57.6-23.6
	l-0.4-4v4c-14.8,0.8-26,3.2-36.4,8.8c4.8,3.6,7.6,9.6,6.4,16c-1.6,8.4-9.6,14.4-18.8,12.8l-30.8-5.6c-4.4-0.8-8-3.2-10.4-6.8
	c-2.4-3.6-3.2-7.6-2.4-12l5.6-30.4c1.6-8.4,10-14.4,18.8-12.8c6.8,1.2,12,6.8,12.8,13.6c17.2-10,34.4-14.4,54.8-14
	c30.8,0,59.6,11.6,80.8,32.8C364.4,300,376,342,366,381.2C364.8,387.6,358.4,392,350.8,392L350.8,392z M255.2,261.2
	C255.6,261.2,255.6,261.2,255.2,261.2c24.4,0,46.8,9.2,64,26c22.8,22.4,32,56,24,86.8c-1.2,4.4,1.6,8.8,5.6,9.6c0.8,0,1.2,0.4,2,0.4
	c2.8,0,6.8-1.6,7.6-5.6c9.2-36.4-1.6-75.6-28.4-102l0,0c-20-19.6-46.8-30.4-75.2-30.4c-0.4,0-0.8,0-1.2,0c-20.4,0-38,5.2-55.6,16.8
	c-1.2,0.8-3.2,0.8-4.4,0s-2-2.4-1.6-4l0.4-2.8c0.8-4.4-2-8.8-6.4-9.6c-4.4-0.8-8.4,2-9.2,6.4l-5.6,30.4c-0.4,2,0,4.4,1.2,6
	s3.2,2.8,5.2,3.2l30.8,5.6c4.4,0.8,8.4-2,9.2-6.4s-2-8.4-6.4-9.2l-2-0.4c-1.6-0.4-2.8-1.6-3.2-3.2s0.4-3.2,1.6-4
	c14-8.8,27.6-12.8,47.6-14C255.2,261.2,255.2,261.2,255.2,261.2z"/>
<path d="M260.4,466.8c-0.4,0-0.8,0-1.2,0c-30.8,0-59.6-11.6-80.8-32.8c-28.8-28.4-40.4-70.4-30.4-109.6c1.6-6.8,8-11.6,15.6-11.6
	c1.2,0,2.8,0,4,0.4c8.4,2.4,13.6,10.8,11.6,19.6c-7.2,28.4,1.2,58.8,22,79.2c15.6,15.2,36,23.6,57.6,23.6l0.4,4v-4
	c14.8-0.8,26-3.2,36.4-8.8c-4.8-3.6-7.6-9.6-6.4-16c1.6-8.4,10-14.4,18.8-12.8l30.8,5.6c4.4,0.8,8,3.2,10.4,6.8
	c2.4,3.6,3.2,7.6,2.4,12l-5.6,30.4c-1.6,8.4-10,14.4-18.8,12.8c-6.8-1.2-12-6.8-12.8-13.6C296.8,462.4,280,466.8,260.4,466.8z
	 M259.2,458.8c21.2,0.4,38.4-5.2,56.8-16.8c1.2-0.8,3.2-0.8,4.4,0s2,2.4,1.6,4l-0.4,2.8c-0.8,4.4,2,8.8,6.4,9.6
	c4.4,0.8,8.4-2,9.2-6.4l5.6-30.4c0.4-2,0-4.4-1.2-6s-3.2-2.8-5.2-3.2l-30.8-5.6c-4.4-0.8-8.4,2-9.2,6.4s2,8.4,6.4,9.2l2,0.4
	c1.6,0.4,2.8,1.6,3.2,3.2s-0.4,3.2-1.6,4c-14,8.8-27.6,12.8-47.6,14c-0.4,0-0.4,0-0.8,0c-24,0-46.4-9.2-63.6-26
	c-22.8-22.4-32-56-24-86.8c1.2-4.4-1.6-8.8-5.6-9.6c-0.8,0-1.2,0-2-0.4c-2.8,0-6.8,1.6-7.6,5.6c-9.2,36.4,1.6,75.6,28.4,102l0,0
	C203.6,448,230.4,458.8,259.2,458.8L259.2,458.8z"/>
<path d="M482,377.2H366c-2.4,0-4-1.6-4-4s1.6-4,4-4h116c6.8,0,10-3.2,10-10v-306c0-6.8-5.2-12-12-12H18c-6.8,0-10,3.2-10,10v308
	c0,6.8,3.2,10,10,10h128c2.4,0,4,1.6,4,4s-1.6,4-4,4H18c-10.8,0-18-7.2-18-18v-308c0-10.8,7.2-18,18-18h462c11.2,0,20,8.8,20,20v306
	C500,370,492.8,377.2,482,377.2z"/>
<path d="M144,349.2H28c-2.4,0-4-1.6-4-4v-280c0-2.4,1.6-4,4-4h388c2.4,0,4,1.6,4,4s-1.6,4-4,4H32v272h112c2.4,0,4,1.6,4,4
	S146.4,349.2,144,349.2z"/>
<path d="M472,349.2H368c-2.4,0-4-1.6-4-4s1.6-4,4-4h100v-272h-16c-2.4,0-4-1.6-4-4s1.6-4,4-4h20c2.4,0,4,1.6,4,4v280
	C476,347.6,474.4,349.2,472,349.2z"/>
<path d="M28,237.6c-1.2,0-2-0.4-2.8-1.2c-1.6-1.6-1.6-4,0-5.6l64-64.4c1.6-1.6,4-1.6,5.6,0s1.6,4,0,5.6l-64,64.4
	C30,237.2,29.2,237.6,28,237.6z"/>
<path d="M172,252.8c-1.2,0-2-0.4-2.8-1.2l-80-79.6c-1.6-1.6-1.6-4,0-5.6s4-1.6,5.6,0l80,79.6c1.6,1.6,1.6,4,0,5.6
	C174,252.4,173.2,252.8,172,252.8z"/>
<path d="M140,197.6c-1.2,0-2-0.4-2.8-1.2c-1.6-1.6-1.6-4,0-5.6l64-64c1.6-1.6,4-1.6,5.6,0s1.6,4,0,5.6l-64,64
	C142,197.2,141.2,197.6,140,197.6z"/>
<path d="M336,237.6c-1.2,0-2-0.4-2.8-1.2c-1.6-1.6-1.6-4,0-5.6l64.4-64.4c1.6-1.6,4-1.6,5.6,0s1.6,4,0,5.6l-64.4,64.4
	C338,237.2,337.2,237.6,336,237.6z"/>
<path d="M356.4,286c-1.2,0-2-0.4-2.8-1.2L201.2,132.4c-1.6-1.6-1.6-4,0-5.6s4-1.6,5.6,0l152.4,152.4c1.6,1.6,1.6,4,0,5.6
	C358.4,285.6,357.6,286,356.4,286z"/>
<path d="M470.8,246.8c-1.2,0-2-0.4-2.8-1.2l-70-74c-1.6-1.6-1.6-4,0-5.6s4-1.6,5.6,0l70,74c1.6,1.6,1.6,4,0,5.6
	C472.8,246.8,471.6,246.8,470.8,246.8z"/>
<path d="M316.4,157.6c-15.6,0-28-12.8-28-28c0-15.6,12.8-28,28-28c6,0,11.6,1.6,16.4,5.2c2,1.2,2.4,3.6,0.8,5.6
	c-1.2,2-3.6,2.4-5.6,0.8c-3.6-2.4-7.6-3.6-11.6-3.6c-11.2,0-20,9.2-20,20c0,11.2,9.2,20,20,20c11.2,0,20-9.2,20-20c0-2.4,1.6-4,4-4
	s4,1.6,4,4C344.4,145.2,331.6,157.6,316.4,157.6z"/>
<path d="M247.6,326c-1.2,0-2-0.4-2.8-1.2l-20-19.2c-1.6-1.6-1.6-4,0-5.6s4-1.6,5.6,0l20,19.2c1.6,1.6,1.6,4,0,5.6
	C249.6,325.6,248.8,326,247.6,326z"/>
</svg>