<svg xmlns="http://www.w3.org/2000/svg" xml:space="preserve" width="800" height="800" viewBox="0 0 473.9 473.9">
  <path d="m451.1 364.5-202.3-326a13 13 0 0 0-22 0L24 365.3A13 13 0 0 0 35 385h405.7a13 13 0 0 0 10.4-20.6z" style="fill:#edc92c;stroke-width:1.24427"/>
  <path d="m222.9 250.3-4.2-62.8c-.8-12.2-1.2-21-1.2-26.3 0-7.3 2-13 5.7-17 3.8-4 8.8-6 15-6 7.5 0 12.5 2.5 15 7.7a52.8 52.8 0 0 1 3.9 22.5c0 5.7-.3 11.6-1 17.5l-5.6 64.6c-.6 7.7-1.9 13.6-4 17.7-2 4.1-5.2 6.2-9.9 6.2s-8-2-9.8-6a59 59 0 0 1-4-18.1zm14.5 86.2c-5.3 0-10-1.7-14-5.2-4-3.4-5.9-8.3-5.9-14.5 0-5.4 2-10 5.7-13.8a19 19 0 0 1 14-5.7c5.5 0 10.1 2 14 5.7 4 3.8 5.9 8.4 5.9 13.8 0 6.2-2 11-6 14.5a20 20 0 0 1-13.7 5.2z" style="stroke-width:1.24427"/>
</svg>
