<?xml version="1.0" encoding="UTF-8"?>
<svg class="titlebar-icon" width="800px" height="800px" fill="none" version="1.1" viewBox="0 0 24 24" xmlns="http://www.w3.org/2000/svg">
 <path d="m2.931 2.931c-0.7084 0.7084-0.7084 1.857 0 2.565l6.503 6.503-6.503 6.503c-0.7084 0.7084-0.7084 1.857 0 2.565 0.7084 0.7084 1.857 0.7084 2.565 0l6.503-6.503 6.503 6.503c0.7084 0.7084 1.857 0.7084 2.565 0 0.7084-0.7084 0.7084-1.857 0-2.565l-6.503-6.503 6.503-6.503c0.7084-0.7084 0.7084-1.857 0-2.565-0.7085-0.7084-1.857-0.7084-2.565 0l-6.503 6.503-6.503-6.503c-0.7084-0.7084-1.857-0.7084-2.565 0z" fill="#0f0f0f" stroke-width="1.814"/>
</svg>
